<svg xmlns="http://www.w3.org/2000/svg" version="1.1" xmlns:xlink="http://www.w3.org/1999/xlink" xmlns:svgjs="http://svgjs.dev/svgjs" viewBox="0 0 800 400"><path d="M66.81613159179688,5.381160736083984C45.29146973292033,34.678619384765625,-32.43647845586141,74.73840967814128,2.2421460151672363,93.2735366821289C36.920770486195885,111.80866368611653,137.66815074284872,-28.40060170491536,170.8520050048828,60.986541748046875C204.0358592669169,150.3736852010091,34.828086853027344,375.4857889811198,101.79370880126953,361.4349670410156C168.75933074951172,347.38414510091144,284.1554489135742,77.42899576822916,371.7488708496094,18.834075927734375C459.34229278564453,-39.760843912760414,308.9685974121094,185.05230077107748,364.573974609375,185.65020751953125C420.1793518066406,186.24811426798502,540.3587239583334,-45.14200973510742,538.5650024414062,20.627796173095703C536.7712809244791,86.39760208129883,357.1001383463542,317.4887758890788,359.19281005859375,382.9596252441406C361.2854817708333,448.43047459920246,483.25856526692706,212.85499064127603,544.843017578125,217.04034423828125C606.4274698893229,221.22569783528647,463.8265787760417,441.25559488932294,543.9461669921875,395.51568603515625C624.0657552083334,349.77577718098956,734.9775797526041,81.91329956054688,785.2017822265625,79.82061767578125C835.4259847005209,77.72793579101562,691.9282023111979,295.96410115559894,694.6187744140625,389.2376403808594C697.3093465169271,482.5111796061198,760.3885904947916,369.50670369466144,793.2734985351562,359.6412353515625" fill="none" stroke-width="15" stroke="hsl(146, 31%, 37%)" stroke-linecap="round" transform="matrix(-1.0000000000000002,1.1102230246251565e-16,-1.1102230246251565e-16,-1.0000000000000002,796.403305053711,405.184886932373)" stroke-dasharray="0 0" stroke-opacity="0.72"></path><defs><linearGradient id="SvgjsLinearGradient1002"><stop stop-color="hsl(37, 99%, 67%)" offset="0"></stop><stop stop-color="hsl(316, 73%, 52%)" offset="1"></stop></linearGradient></defs></svg>